<svg width="400" height="400" viewBox="0 0 400 400" xmlns="http://www.w3.org/2000/svg">
  <!-- Professional K8s Helm Frame -->
  <g transform="translate(200, 200)">
    <!-- Outer Helm Rim -->
    <circle cx="0" cy="0" r="100" fill="none" stroke="#326CE5" stroke-width="24" />
    
    <!-- 7 Spokes/Handles (Official K8s Style) -->
    <g id="k8s-handles">
      <rect x="-12" y="-145" width="24" height="60" rx="12" fill="#326CE5" transform="rotate(0)" />
      <rect x="-12" y="-145" width="24" height="60" rx="12" fill="#326CE5" transform="rotate(51.4)" />
      <rect x="-12" y="-145" width="24" height="60" rx="12" fill="#326CE5" transform="rotate(102.8)" />
      <rect x="-12" y="-145" width="24" height="60" rx="12" fill="#326CE5" transform="rotate(154.2)" />
      <rect x="-12" y="-145" width="24" height="60" rx="12" fill="#326CE5" transform="rotate(205.6)" />
      <rect x="-12" y="-145" width="24" height="60" rx="12" fill="#326CE5" transform="rotate(257)" />
      <rect x="-12" y="-145" width="24" height="60" rx="12" fill="#326CE5" transform="rotate(308.4)" />
    </g>

    <!-- Spoke Connectors -->
    <g id="spoke-connectors">
      <rect x="-8" y="-105" width="16" height="70" fill="#326CE5" transform="rotate(0)" />
      <rect x="-8" y="-105" width="16" height="70" fill="#326CE5" transform="rotate(51.4)" />
      <rect x="-8" y="-105" width="16" height="70" fill="#326CE5" transform="rotate(102.8)" />
      <rect x="-8" y="-105" width="16" height="70" fill="#326CE5" transform="rotate(154.2)" />
      <rect x="-8" y="-105" width="16" height="70" fill="#326CE5" transform="rotate(205.6)" />
      <rect x="-8" y="-105" width="16" height="70" fill="#326CE5" transform="rotate(257)" />
      <rect x="-8" y="-105" width="16" height="70" fill="#326CE5" transform="rotate(308.4)" />
    </g>

    <!-- The Official MCP Core Hub -->
    <!-- We center the official paths (originally 180x180, centered at 90,90) -->
    <g transform="translate(-60, -60) scale(0.66)">
      <!-- Official MCP Paths -->
      <path d="M18 84.8528L85.8822 16.9706C95.2548 7.59798 110.451 7.59798 119.823 16.9706V16.9706C129.196 26.3431 129.196 41.5391 119.823 50.9117L68.5581 102.177" stroke="#326CE5" stroke-width="14" stroke-linecap="round"/>
      <path d="M69.2652 101.47L119.823 50.9117C129.196 41.5391 144.392 41.5391 153.765 50.9117L154.118 51.2652C163.491 60.6378 163.491 75.8338 154.118 85.2063L92.7248 146.6C89.6006 149.724 89.6006 154.789 92.7248 157.913L105.331 170.52" stroke="#326CE5" stroke-width="14" stroke-linecap="round"/>
      <path d="M102.853 33.9411L52.6482 84.1457C43.2756 93.5183 43.2756 108.714 52.6482 118.087V118.087C62.0208 127.459 77.2167 127.459 86.5893 118.087L136.794 67.8822" stroke="#326CE5" stroke-width="14" stroke-linecap="round"/>
    </g>
  </g>
</svg>
